<?xml version="1.0" encoding="UTF-8" standalone="no" ?>
<!DOCTYPE svg PUBLIC "-//W3C//DTD SVG 1.1//EN" "http://www.w3.org/Graphics/SVG/1.1/DTD/svg11.dtd">
<svg xmlns="http://www.w3.org/2000/svg" xmlns:xlink="http://www.w3.org/1999/xlink" version="1.1" width="1080" height="1080" viewBox="0 0 1080 1080" xml:space="preserve">
<desc>Created with Fabric.js 5.2.4</desc>
<defs>
</defs>
<g transform="matrix(1 0 0 1 540 540)" id="4f931056-46d1-4591-9294-f284c01ec602"  >
<rect style="stroke: none; stroke-width: 1; stroke-dasharray: none; stroke-linecap: butt; stroke-dashoffset: 0; stroke-linejoin: miter; stroke-miterlimit: 4; fill: rgb(255,255,255); fill-rule: nonzero; opacity: 1; visibility: hidden;" vector-effect="non-scaling-stroke"  x="-540" y="-540" rx="0" ry="0" width="1080" height="1080" />
</g>
<g transform="matrix(1 0 0 1 540 540)" id="b34e462c-c1dd-4abc-9d58-b4a761d69754"  >
</g>
<g transform="matrix(1 0 0 1 552.6 540)"  >
<path style="stroke: none; stroke-width: 1; stroke-dasharray: none; stroke-linecap: butt; stroke-dashoffset: 0; stroke-linejoin: miter; stroke-miterlimit: 4; fill: rgb(255,255,255); fill-rule: nonzero; opacity: 1;" vector-effect="non-scaling-stroke"  transform=" translate(-85.37, -11.87)" d="M 40.014 16.809 L 40.014 8.553 C 40.014 6.976000000000001 40.38 5.7330000000000005 41.112 4.823 C 41.845 3.9130000000000003 42.762 3.458 43.862 3.458 C 46.02 3.458 47.099000000000004 5.035 47.099000000000004 8.189 L 47.099000000000004 16.808999999999997 L 50.881 16.808999999999997 L 50.881 7.228999999999997 C 50.881 4.813999999999997 50.381 3.0089999999999977 49.378 1.8119999999999976 C 48.376 0.615 46.945 0.017 45.084 0.017 C 43.862 0.017 42.744 0.251 41.732000000000006 0.72 C 40.72565935501448 1.1833899939085364 39.847088143968556 1.8845310033486993 39.172000000000004 2.763000000000001 L 39.106 2.763 C 38.126 0.932 36.486 0.017 34.184 0.017 C 33.214999999999996 0.017 32.282 0.23399999999999999 31.384999999999998 0.67 C 30.473327073875947 1.1172776683885344 29.670296169481265 1.7582007616538156 29.031999999999996 2.548000000000001 L 28.981999999999996 2.548 L 28.981999999999996 0.265 L 25.2 0.265 L 25.2 16.792 L 28.982 16.792 L 28.982 8.553 C 28.982 6.976000000000001 29.354 5.7330000000000005 30.096999999999998 4.823 C 30.839999999999996 3.9130000000000003 31.79 3.458 32.946 3.458 C 35.135999999999996 3.458 36.232 5.035 36.232 8.189 L 36.232 16.808999999999997 L 40.013999999999996 16.808999999999997 z M 61.115 17.057000000000002 C 63.361000000000004 17.057000000000002 65.112 16.230000000000004 66.367 14.575000000000003 L 66.417 14.575000000000003 L 66.417 16.792 L 70.033 16.792 L 70.033 0.265 L 66.251 0.265 L 66.251 2.25 L 66.185 2.25 C 64.93 0.761 63.23 0.017 61.082 0.017 C 58.935850664209454 0.001758782340574026 56.879226482496605 0.8760322199108123 55.401 2.4320000000000017 C 54.696000000000005 3.182 54.141000000000005 4.092 53.733000000000004 5.162 C 53.32038990196713 6.261574135403718 53.11328616952955 7.427591876132466 53.12200000000001 8.602000000000002 C 53.12200000000001 9.86 53.32500000000001 11.018 53.732000000000006 12.077 C 54.14000000000001 13.136 54.696000000000005 14.029 55.401 14.757 C 56.11807808314537 15.493413337058122 56.98167935891748 16.07119154759441 57.93600000000001 16.453 C 58.94627357419238 16.8604488600075 60.0266918406371 17.065660379797627 61.11600000000001 17.057 z M 61.71 13.616000000000003 C 60.311 13.616000000000003 59.172000000000004 13.150000000000004 58.291000000000004 12.218000000000004 C 57.411 11.286000000000003 56.970000000000006 10.086000000000004 56.970000000000006 8.619000000000003 C 56.970000000000006 7.064000000000004 57.42400000000001 5.815000000000003 58.33200000000001 4.872000000000003 C 59.24100000000001 3.9290000000000034 60.37200000000001 3.4580000000000037 61.726000000000006 3.4580000000000037 C 63.069 3.4580000000000037 64.18400000000001 3.9510000000000036 65.07100000000001 4.938000000000004 C 65.95700000000001 5.926000000000004 66.40100000000001 7.153000000000004 66.40100000000001 8.619000000000003 C 66.40100000000001 10.086000000000004 65.94600000000001 11.286000000000003 65.03800000000001 12.218000000000004 C 64.129 13.150000000000004 63.02000000000001 13.616000000000003 61.71000000000001 13.616000000000003 z M 88.822 16.809000000000005 L 88.822 7.064 C 88.822 4.671 88.286 2.8979999999999997 87.212 1.745 C 86.14 0.593 84.655 0.017 82.762 0.017 C 81.70896075813395 0.011295133094583017 80.66691659461257 0.2312291924765542 79.706 0.6620000000000014 C 78.75007211744285 1.0908902739201554 77.90334392224585 1.7301239134108273 77.229 2.532000000000002 L 77.179 2.532 L 77.179 0.264 L 73.397 0.264 L 73.397 16.791 L 77.179 16.791 L 77.179 8.487 C 77.179 6.899 77.56700000000001 5.664 78.343 4.781000000000001 C 79.12 3.8990000000000005 80.15700000000001 3.4580000000000006 81.456 3.4580000000000006 C 82.051 3.4580000000000006 82.56 3.5350000000000006 82.98400000000001 3.6890000000000005 C 83.40800000000002 3.8440000000000003 83.78000000000002 4.095000000000001 84.099 4.442 C 84.419 4.79 84.655 5.261 84.809 5.857 C 84.963 6.452 85.03999999999999 7.18 85.03999999999999 8.04 L 85.03999999999999 16.808999999999997 L 88.82199999999999 16.808999999999997 z M 99.04 17.057000000000006 C 101.286 17.057000000000006 103.036 16.230000000000004 104.292 14.575000000000006 L 104.342 14.575000000000006 L 104.342 16.792000000000005 L 107.958 16.792000000000005 L 107.958 0.265 L 104.176 0.265 L 104.176 2.25 L 104.11 2.25 C 102.855 0.761 101.154 0.017 99.007 0.017 C 96.86050389258938 0.0014815585313684085 94.80346471942356 0.8757775112232832 93.325 2.432 C 92.62100000000001 3.182 92.065 4.092 91.657 5.162 C 91.24473096343152 6.261638258715244 91.03796653871113 7.427654030908893 91.047 8.602000000000002 C 91.047 9.86 91.25 11.018 91.657 12.077 C 92.065 13.136 92.621 14.029 93.325 14.757 C 94.04236951622795 15.493529225235376 94.90632183284181 16.071314370731077 95.861 16.453 C 96.870961993253 16.860320278910027 97.95102787603297 17.06552939913623 99.04 17.057000000000002 z M 99.634 13.616000000000007 C 98.236 13.616000000000007 97.096 13.150000000000007 96.216 12.218000000000007 C 95.335 11.286000000000007 94.89399999999999 10.086000000000007 94.89399999999999 8.619000000000007 C 94.89399999999999 7.064000000000007 95.34899999999999 5.815000000000007 96.25699999999999 4.872000000000007 C 97.16499999999999 3.929000000000007 98.297 3.4580000000000073 99.651 3.4580000000000073 C 100.994 3.4580000000000073 102.109 3.951000000000007 102.99499999999999 4.938000000000008 C 103.88099999999999 5.926000000000007 104.32499999999999 7.153000000000008 104.32499999999999 8.619000000000007 C 104.32499999999999 10.086000000000007 103.86999999999999 11.286000000000007 102.96199999999999 12.218000000000007 C 102.05399999999999 13.150000000000007 100.94399999999999 13.616000000000007 99.63399999999999 13.616000000000007 z M 118.70400000000001 23.741000000000007 C 119.90400000000001 23.741000000000007 120.97800000000001 23.601000000000006 121.924 23.319000000000006 C 122.87100000000001 23.038000000000007 123.667 22.646000000000008 124.311 22.144000000000005 C 124.95869512881045 21.6381584617527 125.50264742188924 21.012036096935418 125.91300000000001 20.300000000000004 C 126.34177340380913 19.55879078611719 126.65090795478409 18.754568477194347 126.82900000000001 17.917000000000005 C 127.01700000000001 17.057000000000006 127.11000000000001 16.114000000000004 127.11000000000001 15.088000000000005 L 127.11000000000001 0.265 L 123.32800000000002 0.265 L 123.32800000000002 2.0020000000000002 L 123.26200000000001 2.0020000000000002 C 122.5844003976141 1.353999387909938 121.7845010135933 0.8474757660693117 120.90900000000002 0.512 C 120.02645076046934 0.17103338326751177 119.0881208532436 -0.002593256595005311 118.14199999999998 -2.220446049250313e-16 C 116.634 0 115.28 0.358 114.08 1.075 C 112.88 1.7919999999999998 111.946 2.7880000000000003 111.28 4.062 C 110.614 5.335 110.281 6.767 110.281 8.355 C 110.281 9.965 110.631 11.393 111.33000000000001 12.64 C 112.02900000000001 13.886000000000001 112.99000000000001 14.843 114.21200000000002 15.510000000000002 C 115.43400000000001 16.177000000000003 116.81000000000002 16.511000000000003 118.34100000000002 16.511000000000003 C 120.38800000000002 16.511000000000003 122.05700000000002 15.838000000000003 123.34500000000003 14.493000000000002 L 123.41100000000003 14.493000000000002 L 123.41100000000003 16.246000000000002 C 123.41100000000003 17.416000000000004 122.98100000000002 18.386000000000003 122.12300000000003 19.158 C 121.26300000000003 19.93 120.05300000000004 20.316000000000003 118.48900000000003 20.316000000000003 C 117.42100000000003 20.316000000000003 116.48300000000003 20.184 115.67300000000003 19.919000000000004 C 114.86400000000003 19.654000000000003 113.93100000000003 19.241000000000003 112.87400000000002 18.679000000000006 L 111.98200000000003 22.020000000000007 C 112.90700000000002 22.572000000000006 113.94800000000002 22.996000000000006 115.10400000000003 23.294000000000008 C 116.26000000000003 23.592000000000006 117.46000000000002 23.741000000000007 118.70400000000002 23.741000000000007 z M 118.83600000000001 13.021000000000006 C 117.47100000000002 13.021000000000006 116.34500000000001 12.587000000000007 115.45900000000002 11.721000000000005 C 114.57200000000002 10.856000000000005 114.12900000000002 9.695000000000006 114.12900000000002 8.239000000000004 C 114.12900000000002 6.839000000000004 114.56400000000002 5.6970000000000045 115.43400000000003 4.8140000000000045 C 116.30400000000003 3.9320000000000044 117.43800000000003 3.4910000000000045 118.83600000000003 3.4910000000000045 C 120.16800000000002 3.4910000000000045 121.27800000000002 3.9260000000000046 122.16400000000003 4.7980000000000045 C 123.05000000000003 5.669000000000004 123.49400000000003 6.800000000000004 123.49400000000003 8.189000000000004 C 123.49400000000003 9.590000000000003 123.06100000000002 10.745000000000005 122.19700000000003 11.655000000000005 C 121.33300000000003 12.565000000000005 120.21200000000003 13.020000000000005 118.83600000000003 13.020000000000005 z M 137.92200000000003 17.057000000000006 C 139.46400000000003 17.057000000000006 140.82100000000003 16.776000000000007 141.99300000000002 16.213000000000005 C 143.16600000000003 15.651000000000005 144.12600000000003 14.890000000000004 144.87500000000003 13.930000000000005 L 142.23300000000003 11.664000000000005 C 141.19800000000004 12.965000000000005 139.82700000000003 13.616000000000005 138.12000000000003 13.616000000000005 C 136.91000000000003 13.616000000000005 135.88300000000004 13.279000000000005 135.04000000000002 12.606000000000005 C 134.198 11.934000000000005 133.65600000000003 11.013000000000005 133.413 9.844000000000005 L 145.437 9.844000000000005 C 145.50300000000001 9.447000000000005 145.536 8.944000000000004 145.536 8.338000000000005 C 145.536 6.739000000000004 145.211 5.311000000000004 144.561 4.053000000000004 C 143.93050296404286 2.8159258108251075 142.95566844291938 1.787609096522774 141.75400000000002 1.0920000000000023 C 140.532 0.37500000000000455 139.122 0.017000000000004567 137.526 0.017000000000004567 C 136.4326028816303 0.008809858030904488 135.34863247043901 0.2196196619639611 134.33800000000002 0.6370000000000056 C 133.348 1.0510000000000046 132.49400000000003 1.6270000000000047 131.77800000000002 2.3660000000000045 C 131.06300000000002 3.1050000000000044 130.50100000000003 4.004000000000005 130.09400000000002 5.062000000000005 C 129.687 6.122000000000005 129.48300000000003 7.2740000000000045 129.48300000000003 8.520000000000005 C 129.48300000000003 10.208000000000006 129.85200000000003 11.705000000000005 130.58900000000003 13.012000000000004 C 131.32700000000003 14.319000000000004 132.33500000000004 15.320000000000004 133.61200000000002 16.015000000000004 C 134.889 16.710000000000004 136.32600000000002 17.057000000000006 137.92200000000003 17.057000000000006 z M 141.73700000000002 6.783000000000007 L 133.48000000000002 6.783000000000007 C 133.74400000000003 5.724000000000006 134.25600000000003 4.9050000000000065 135.01500000000001 4.326000000000007 C 135.775 3.747000000000007 136.67800000000003 3.458000000000007 137.72400000000002 3.458000000000007 C 138.781 3.458000000000007 139.65400000000002 3.756000000000007 140.342 4.351000000000007 C 141.03 4.947000000000007 141.495 5.757000000000007 141.73700000000002 6.783000000000007 z" stroke-linecap="round" />
</g>
<g transform="matrix(1 0 0 1 475.03 536.13)"  >
<path style="stroke: none; stroke-width: 1; stroke-dasharray: none; stroke-linecap: butt; stroke-dashoffset: 0; stroke-linejoin: miter; stroke-miterlimit: 4; fill: rgb(243,96,60); fill-rule: evenodd; opacity: 1;" vector-effect="non-scaling-stroke"  transform=" translate(-7.8, -8)" d="M 2.786 10.286 C 4.324 10.286 5.571 11.565 5.571 13.143 C 5.571 14.72 4.324 16 2.786 16 C 1.247 16 0 14.72 0 13.143 C 0 11.565000000000001 1.247 10.286000000000001 2.786 10.286000000000001 z M 2.786 0 C 4.324 0 5.57 1.28 5.57 2.857 C 5.57 4.4350000000000005 4.323 5.714 2.785 5.714 C 1.247 5.714 0 4.435 0 2.857 C 0 1.28 1.247 0 2.786 0 z M 12.814 0 C 14.353 0 15.6 1.28 15.6 2.857 C 15.6 4.4350000000000005 14.353 5.714 12.814 5.714 C 11.276 5.714 10.029 4.4350000000000005 10.029 2.857 C 10.029 1.28 11.276 0 12.814 0 z" stroke-linecap="round" />
</g>
<g transform="matrix(1 0 0 1 480.05 541.39)"  >
<ellipse style="stroke: none; stroke-width: 1; stroke-dasharray: none; stroke-linecap: butt; stroke-dashoffset: 0; stroke-linejoin: miter; stroke-miterlimit: 4; fill: rgb(243,96,60); fill-rule: evenodd; opacity: 0.5;" vector-effect="non-scaling-stroke"  cx="0" cy="0" rx="2.786" ry="2.857" />
</g>
</svg>